<?xml version="1.0" encoding="UTF-8"?>
<!DOCTYPE svg PUBLIC "-//W3C//DTD SVG 1.1//EN" "http://www.w3.org/Graphics/SVG/1.1/DTD/svg11.dtd">
<svg xmlns="http://www.w3.org/2000/svg" version="1.1" width="92px" height="48px" style="shape-rendering:geometricPrecision; text-rendering:geometricPrecision; image-rendering:optimizeQuality; fill-rule:evenodd; clip-rule:evenodd" xmlns:xlink="http://www.w3.org/1999/xlink">
<g><path style="opacity:0.978" fill="#e1e1e2" d="M 49.5,11.5 C 49.5,17.1667 49.5,22.8333 49.5,28.5C 50.0356,31.6981 49.369,34.3647 47.5,36.5C 45.965,35.6457 44.6316,35.6457 43.5,36.5C 41.1667,36.5 38.8333,36.5 36.5,36.5C 35.5,36.1667 34.8333,35.5 34.5,34.5C 32.8572,30.7047 32.1906,26.7047 32.5,22.5C 32.3284,21.5084 32.6618,20.8417 33.5,20.5C 34.5,20.1667 35.1667,19.5 35.5,18.5C 37.5419,16.4094 39.8752,16.0761 42.5,17.5C 42.56,18.0431 42.8933,18.3764 43.5,18.5C 44.3857,17.675 44.719,16.675 44.5,15.5C 44.2606,13.5328 44.5939,11.6995 45.5,10C 47.4628,9.15579 48.7961,9.65579 49.5,11.5 Z M 40.5,21.5 C 41.4959,21.4142 42.3292,21.7476 43,22.5C 43.5,24.5 44,26.5 44.5,28.5C 43.6453,32.5238 41.8119,33.1905 39,30.5C 38.068,27.1769 38.568,24.1769 40.5,21.5 Z"/></g>
<g><path style="opacity:0.942" fill="#e0e0e1" d="M 54.5,10.5 C 58.1378,9.73656 59.6378,11.0699 59,14.5C 54.4155,16.4126 52.9155,15.0793 54.5,10.5 Z"/></g>
<g><path style="opacity:0.988" fill="#d5d4d6" d="M 30.5,11.5 C 30.5,12.8333 30.5,14.1667 30.5,15.5C 26.6286,15.185 22.9619,15.5184 19.5,16.5C 19.5,17.5 19.5,18.5 19.5,19.5C 21.9878,21.3878 24.9878,22.0545 28.5,21.5C 28.5,22.8333 28.5,24.1667 28.5,25.5C 25.5,25.5 22.5,25.5 19.5,25.5C 19.5,27.8333 19.5,30.1667 19.5,32.5C 23.1667,32.5 26.8333,32.5 30.5,32.5C 30.5,33.8333 30.5,35.1667 30.5,36.5C 25.1967,37.8291 19.8634,37.8291 14.5,36.5C 12.8829,28.1685 12.5496,19.8352 13.5,11.5C 19.3204,10.1843 24.9871,10.1843 30.5,11.5 Z"/></g>
<g><path style="opacity:0.375" fill="#585761" d="M 49.5,11.5 C 51.7494,17.1244 51.7494,22.7911 49.5,28.5C 49.5,22.8333 49.5,17.1667 49.5,11.5 Z"/></g>
<g><path style="opacity:0.127" fill="#1a1926" d="M 30.5,11.5 C 31.4511,12.9187 31.7845,14.5853 31.5,16.5C 27.5,16.5 23.5,16.5 19.5,16.5C 22.9619,15.5184 26.6286,15.185 30.5,15.5C 30.5,14.1667 30.5,12.8333 30.5,11.5 Z"/></g>
<g><path style="opacity:0.271" fill="#3f3d4a" d="M 44.5,15.5 C 44.719,16.675 44.3857,17.675 43.5,18.5C 42.8933,18.3764 42.56,18.0431 42.5,17.5C 42.8333,16.5 43.5,15.8333 44.5,15.5 Z"/></g>
<g><path style="opacity:0.555" fill="#6a6872" d="M 57.5,17.5 C 56.5,17.5 55.5,17.5 54.5,17.5C 54.5,21.1667 54.5,24.8333 54.5,28.5C 53.3128,25.0196 52.8128,21.353 53,17.5C 54.6155,16.1991 56.1155,16.1991 57.5,17.5 Z"/></g>
<g><path style="opacity:0.991" fill="#e0dfe1" d="M 57.5,17.5 C 59.4589,23.7496 60.1255,30.4163 59.5,37.5C 57.5328,37.7394 55.6995,37.4061 54,36.5C 54.2554,33.9184 54.422,31.2518 54.5,28.5C 54.5,24.8333 54.5,21.1667 54.5,17.5C 55.5,17.5 56.5,17.5 57.5,17.5 Z"/></g>
<g><path style="opacity:0.988" fill="#dedee0" d="M 79.5,21.5 C 79.6741,23.861 80.0074,26.1944 80.5,28.5C 76.4454,28.1758 72.4454,28.5091 68.5,29.5C 69.9551,32.3566 71.9551,33.0232 74.5,31.5C 75.1667,31.1667 75.8333,30.8333 76.5,30.5C 80.4659,32.5512 80.4659,34.5512 76.5,36.5C 66.153,37.6515 61.653,32.9848 63,22.5C 64.4783,18.5204 67.3116,16.8538 71.5,17.5C 75.2653,16.7907 77.932,18.124 79.5,21.5 Z M 70.5,22.5 C 71.5,22.5 72.5,22.5 73.5,22.5C 72.5,25.1667 71.5,25.1667 70.5,22.5 Z"/></g>
<g><path style="opacity:0.157" fill="#2e2d39" d="M 35.5,18.5 C 35.1667,19.5 34.5,20.1667 33.5,20.5C 33.5,19.1667 34.1667,18.5 35.5,18.5 Z"/></g>
<g><path style="opacity:0.443" fill="#504f59" d="M 19.5,19.5 C 22.1357,20.8236 24.8023,20.8236 27.5,19.5C 29.0116,20.9906 30.0116,22.8239 30.5,25C 27.3812,26.4051 24.0479,26.9051 20.5,26.5C 20.5,28.1667 20.5,29.8333 20.5,31.5C 24.2873,31.0846 27.9539,31.0846 31.5,31.5C 31.7845,33.4147 31.4511,35.0813 30.5,36.5C 30.5,35.1667 30.5,33.8333 30.5,32.5C 26.8333,32.5 23.1667,32.5 19.5,32.5C 19.5,30.1667 19.5,27.8333 19.5,25.5C 22.5,25.5 25.5,25.5 28.5,25.5C 28.5,24.1667 28.5,22.8333 28.5,21.5C 24.9878,22.0545 21.9878,21.3878 19.5,19.5 Z"/></g>
<g><path style="opacity:0.087" fill="#141321" d="M 32.5,22.5 C 32.1906,26.7047 32.8572,30.7047 34.5,34.5C 33.1001,33.9002 32.1001,32.9002 31.5,31.5C 31.19,28.2869 31.5233,25.2869 32.5,22.5 Z"/></g>
<g><path style="opacity:0.732" fill="#4d4b57" d="M 70.5,22.5 C 71.5,25.1667 72.5,25.1667 73.5,22.5C 74.404,23.209 74.7373,24.209 74.5,25.5C 72.396,25.7989 70.396,25.4656 68.5,24.5C 68.8555,23.4777 69.5222,22.811 70.5,22.5 Z M 70.5,22.5 C 71.5,22.5 72.5,22.5 73.5,22.5C 72.5,25.1667 71.5,25.1667 70.5,22.5 Z"/></g>
<g><path style="opacity:0.829" fill="#3e3c48" d="M 79.5,21.5 C 81.2227,23.78 81.8893,26.4467 81.5,29.5C 78.6644,29.2022 78.1644,29.8689 80,31.5C 81.0748,34.5309 80.0748,36.5309 77,37.5C 76.6012,37.2716 76.4346,36.9382 76.5,36.5C 80.4659,34.5512 80.4659,32.5512 76.5,30.5C 74.7116,29.3775 72.7116,29.2109 70.5,30C 71.5634,31.1882 72.8967,31.6882 74.5,31.5C 71.9551,33.0232 69.9551,32.3566 68.5,29.5C 72.4454,28.5091 76.4454,28.1758 80.5,28.5C 80.0074,26.1944 79.6741,23.861 79.5,21.5 Z M 76.5,30.5 C 75.8333,30.8333 75.1667,31.1667 74.5,31.5C 72.8967,31.6882 71.5634,31.1882 70.5,30C 72.7116,29.2109 74.7116,29.3775 76.5,30.5 Z"/></g>
<g><path style="opacity:1" fill="#32313d" d="M 36.5,36.5 C 38.8333,36.5 41.1667,36.5 43.5,36.5C 41.1667,39.1667 38.8333,39.1667 36.5,36.5 Z"/></g>
<g><path style="opacity:0.08" fill="#252431" d="M 43.5,36.5 C 44.6316,35.6457 45.965,35.6457 47.5,36.5C 46.2946,37.6857 44.9613,37.6857 43.5,36.5 Z"/></g>
</svg>
