<?xml version="1.0" encoding="UTF-8"?>
<!DOCTYPE svg PUBLIC "-//W3C//DTD SVG 1.1//EN" "http://www.w3.org/Graphics/SVG/1.1/DTD/svg11.dtd">
<svg xmlns="http://www.w3.org/2000/svg" version="1.1" width="341px" height="191px" style="shape-rendering:geometricPrecision; text-rendering:geometricPrecision; image-rendering:optimizeQuality; fill-rule:evenodd; clip-rule:evenodd" xmlns:xlink="http://www.w3.org/1999/xlink">
<g><path style="opacity:0.331" fill="#b3b3b3" d="M 187.5,20.5 C 178.5,20.5 169.5,20.5 160.5,20.5C 160.667,36.1702 160.5,51.8369 160,67.5C 159.283,66.9558 158.783,66.2891 158.5,65.5C 159.496,50.3424 159.83,35.0091 159.5,19.5C 169.015,19.1731 178.348,19.5064 187.5,20.5 Z"/></g>
<g><path style="opacity:0.999" fill="#373737" d="M 187.5,20.5 C 187.5,64.8333 187.5,109.167 187.5,153.5C 179.167,153.5 170.833,153.5 162.5,153.5C 162.5,152.167 162.5,150.833 162.5,149.5C 162.799,147.396 162.466,145.396 161.5,143.5C 160.893,143.624 160.56,143.957 160.5,144.5C 154.73,151.468 147.23,155.134 138,155.5C 131.981,155.126 126.481,153.46 121.5,150.5C 121.027,149.094 120.027,148.427 118.5,148.5C 108.41,140.821 102.91,130.488 102,117.5C 100.766,105.302 101.766,93.3021 105,81.5C 106.274,78.6089 107.774,75.9422 109.5,73.5C 110.906,73.0269 111.573,72.0269 111.5,70.5C 111.932,69.2905 112.599,68.2905 113.5,67.5C 115.404,67.2624 116.738,66.2624 117.5,64.5C 123.225,59.3492 130.058,57.0158 138,57.5C 146.139,57.1515 152.972,59.8181 158.5,65.5C 158.783,66.2891 159.283,66.9558 160,67.5C 160.5,51.8369 160.667,36.1702 160.5,20.5C 169.5,20.5 178.5,20.5 187.5,20.5 Z M 158.5,86.5 C 159.48,99.087 159.813,111.754 159.5,124.5C 153.448,132.722 145.781,134.555 136.5,130C 131.001,123.185 128.668,115.351 129.5,106.5C 129.06,99.5338 130.227,92.8671 133,86.5C 141.539,77.266 150.039,77.266 158.5,86.5 Z"/></g>
<g><path style="opacity:0.998" fill="#3d3d3d" d="M 208.5,25.5 C 210.027,25.573 211.027,24.9063 211.5,23.5C 219.188,19.4619 226.355,20.4619 233,26.5C 238.375,42.5575 232.542,50.0575 215.5,49C 208.724,47.0555 205.058,42.5555 204.5,35.5C 204.876,31.6897 206.209,28.3564 208.5,25.5 Z"/></g>
<g><path style="opacity:0.765" fill="#929292" d="M 211.5,23.5 C 211.027,24.9063 210.027,25.573 208.5,25.5C 208.973,24.0937 209.973,23.427 211.5,23.5 Z"/></g>
<g><path style="opacity:0.47" fill="#959595" d="M 7.5,27.5 C 35.9951,26.502 64.6618,26.1687 93.5,26.5C 93.5,34.1667 93.5,41.8333 93.5,49.5C 93.1667,49.5 92.8333,49.5 92.5,49.5C 92.5,42.1667 92.5,34.8333 92.5,27.5C 64.1667,27.5 35.8333,27.5 7.5,27.5 Z"/></g>
<g><path style="opacity:0.999" fill="#333333" d="M 7.5,27.5 C 35.8333,27.5 64.1667,27.5 92.5,27.5C 92.5,34.8333 92.5,42.1667 92.5,49.5C 73.5,49.5 54.5,49.5 35.5,49.5C 35.5,58.8333 35.5,68.1667 35.5,77.5C 51.8333,77.5 68.1667,77.5 84.5,77.5C 84.5,84.8333 84.5,92.1667 84.5,99.5C 68.5,99.5 52.5,99.5 36.5,99.5C 35.5058,109.653 35.1724,119.986 35.5,130.5C 54.5,130.5 73.5,130.5 92.5,130.5C 92.5,137.833 92.5,145.167 92.5,152.5C 64.1667,152.5 35.8333,152.5 7.5,152.5C 7.5,110.833 7.5,69.1667 7.5,27.5 Z"/></g>
<g><path style="opacity:0.999" fill="#383838" d="M 335.5,92.5 C 335.5,99.8333 335.5,107.167 335.5,114.5C 316.167,114.5 296.833,114.5 277.5,114.5C 277.263,115.791 277.596,116.791 278.5,117.5C 283.161,129.334 291.828,134.167 304.5,132C 308.818,131.174 312.818,129.674 316.5,127.5C 318.5,126.5 320.5,125.5 322.5,124.5C 324.167,125.5 325.5,126.833 326.5,128.5C 326.427,130.027 327.094,131.027 328.5,131.5C 329.833,132.167 330.833,133.167 331.5,134.5C 331.427,136.027 332.094,137.027 333.5,137.5C 333.938,137.435 334.272,137.601 334.5,138C 325.08,149.707 312.747,155.541 297.5,155.5C 287.572,155.441 278.572,152.775 270.5,147.5C 270.027,146.094 269.027,145.427 267.5,145.5C 261.029,140.93 256.195,134.93 253,127.5C 246.614,107.985 248.947,89.6515 260,72.5C 274.412,57.6061 291.579,53.4394 311.5,60C 325.782,66.1252 333.782,76.9585 335.5,92.5 Z M 309.5,92.5 C 309.5,93.8333 309.5,95.1667 309.5,96.5C 299.167,96.5 288.833,96.5 278.5,96.5C 278.5,95.5 278.5,94.5 278.5,93.5C 282.705,81.0673 291.039,77.234 303.5,82C 306.929,84.6916 308.929,88.1916 309.5,92.5 Z"/></g>
<g><path style="opacity:1" fill="#343434" d="M 206.5,59.5 C 215.5,59.5 224.5,59.5 233.5,59.5C 233.5,90.5 233.5,121.5 233.5,152.5C 224.5,152.5 215.5,152.5 206.5,152.5C 206.5,121.5 206.5,90.5 206.5,59.5 Z"/></g>
<g><path style="opacity:0.328" fill="#bbbbbb" d="M 206.5,59.5 C 215.652,58.5064 224.985,58.1731 234.5,58.5C 234.5,90.1667 234.5,121.833 234.5,153.5C 224.985,153.827 215.652,153.494 206.5,152.5C 215.5,152.5 224.5,152.5 233.5,152.5C 233.5,121.5 233.5,90.5 233.5,59.5C 224.5,59.5 215.5,59.5 206.5,59.5 Z"/></g>
<g><path style="opacity:0.757" fill="#8f8f8f" d="M 117.5,64.5 C 116.738,66.2624 115.404,67.2624 113.5,67.5C 114.262,65.7376 115.596,64.7376 117.5,64.5 Z"/></g>
<g><path style="opacity:0.58" fill="#909090" d="M 111.5,70.5 C 111.573,72.0269 110.906,73.0269 109.5,73.5C 109.427,71.9731 110.094,70.9731 111.5,70.5 Z"/></g>
<g><path style="opacity:0.108" fill="#e0e0e0" d="M 92.5,49.5 C 92.8333,49.5 93.1667,49.5 93.5,49.5C 74.674,50.497 55.674,50.8303 36.5,50.5C 36.5,59.1667 36.5,67.8333 36.5,76.5C 52.6754,76.1703 68.6754,76.5036 84.5,77.5C 68.1667,77.5 51.8333,77.5 35.5,77.5C 35.5,68.1667 35.5,58.8333 35.5,49.5C 54.5,49.5 73.5,49.5 92.5,49.5 Z"/></g>
<g><path style="opacity:0.325" fill="#aeaeae" d="M 158.5,86.5 C 159.83,92.463 160.496,98.7963 160.5,105.5C 160.5,112.009 160.166,118.342 159.5,124.5C 159.813,111.754 159.48,99.087 158.5,86.5 Z"/></g>
<g><path style="opacity:0.493" fill="#939393" d="M 309.5,92.5 C 310.451,93.9187 310.784,95.5853 310.5,97.5C 299.5,97.5 288.5,97.5 277.5,97.5C 277.232,95.901 277.566,94.5676 278.5,93.5C 278.5,94.5 278.5,95.5 278.5,96.5C 288.833,96.5 299.167,96.5 309.5,96.5C 309.5,95.1667 309.5,93.8333 309.5,92.5 Z"/></g>
<g><path style="opacity:0.335" fill="#a5a5a5" d="M 335.5,92.5 C 336.492,99.9818 336.825,107.648 336.5,115.5C 316.804,114.846 297.471,115.512 278.5,117.5C 277.596,116.791 277.263,115.791 277.5,114.5C 296.833,114.5 316.167,114.5 335.5,114.5C 335.5,107.167 335.5,99.8333 335.5,92.5 Z"/></g>
<g><path style="opacity:0.816" fill="#818181" d="M 322.5,124.5 C 320.5,125.5 318.5,126.5 316.5,127.5C 317.625,125.871 318.959,124.371 320.5,123C 321.816,122.472 322.483,122.972 322.5,124.5 Z"/></g>
<g><path style="opacity:0.102" fill="#dfdfdf" d="M 36.5,99.5 C 36.5,109.5 36.5,119.5 36.5,129.5C 55.674,129.17 74.674,129.503 93.5,130.5C 93.1667,130.5 92.8333,130.5 92.5,130.5C 73.5,130.5 54.5,130.5 35.5,130.5C 35.1724,119.986 35.5058,109.653 36.5,99.5 Z"/></g>
<g><path style="opacity:0.753" fill="#989898" d="M 326.5,128.5 C 327.906,128.973 328.573,129.973 328.5,131.5C 327.094,131.027 326.427,130.027 326.5,128.5 Z"/></g>
<g><path style="opacity:0.765" fill="#989898" d="M 331.5,134.5 C 332.906,134.973 333.573,135.973 333.5,137.5C 332.094,137.027 331.427,136.027 331.5,134.5 Z"/></g>
<g><path style="opacity:0.631" fill="#acacac" d="M 160.5,144.5 C 160.56,143.957 160.893,143.624 161.5,143.5C 162.466,145.396 162.799,147.396 162.5,149.5C 161.833,147.833 161.167,146.167 160.5,144.5 Z"/></g>
<g><path style="opacity:0.573" fill="#8e8e8e" d="M 267.5,145.5 C 269.027,145.427 270.027,146.094 270.5,147.5C 268.973,147.573 267.973,146.906 267.5,145.5 Z"/></g>
<g><path style="opacity:0.569" fill="#8e8e8e" d="M 118.5,148.5 C 120.027,148.427 121.027,149.094 121.5,150.5C 119.973,150.573 118.973,149.906 118.5,148.5 Z"/></g>
<g><path style="opacity:0.335" fill="#aaaaaa" d="M 92.5,130.5 C 92.8333,130.5 93.1667,130.5 93.5,130.5C 93.5,138.167 93.5,145.833 93.5,153.5C 64.6618,153.831 35.9951,153.498 7.5,152.5C 35.8333,152.5 64.1667,152.5 92.5,152.5C 92.5,145.167 92.5,137.833 92.5,130.5 Z"/></g>
</svg>
